<?xml version="1.0" standalone="no"?>
<!DOCTYPE svg PUBLIC "-//W3C//DTD SVG 20010904//EN"
 "http://www.w3.org/TR/2001/REC-SVG-20010904/DTD/svg10.dtd">
<svg version="1.0" xmlns="http://www.w3.org/2000/svg"
 width="768.000000pt" height="768.000000pt" viewBox="0 0 768.000000 768.000000"
 preserveAspectRatio="xMidYMid meet">
<metadata>
Created by potrace 1.11, written by Peter Selinger 2001-2013
</metadata>
<g transform="translate(0.000000,768.000000) scale(0.100000,-0.100000)"
fill="#000000" stroke="none">
<path d="M268 6861 c-31 -10 -71 -28 -90 -39 -40 -25 -106 -95 -131 -139 -49
-89 -47 53 -46 -2663 0 -1554 4 -2554 9 -2585 33 -170 109 -310 232 -426 89
-84 228 -160 333 -184 17 -4 39 -10 50 -13 11 -4 1368 -8 3015 -9 2933 -2
2997 -2 3095 17 55 11 105 21 110 23 126 45 186 71 250 107 84 48 103 60 125
80 10 8 31 25 48 38 88 66 206 210 274 332 32 57 95 218 102 256 2 16 5 29 6
29 2 0 4 9 5 20 2 11 8 47 13 80 7 40 11 713 11 2008 l1 1947 -384 0 -385 0 0
-1924 c0 -1445 -2 -1934 -11 -1967 -33 -120 -105 -204 -225 -259 -41 -19 -68
-24 -145 -24 -86 -1 -101 2 -161 30 -36 18 -87 52 -112 77 -47 48 -113 168
-104 192 3 7 3 16 -1 20 -4 4 -8 1051 -8 2328 -1 1277 -4 2339 -7 2360 -17
106 -107 219 -216 271 l-66 31 -2765 2 c-2645 2 -2767 1 -2822 -16z m2802
-1148 c0 -16 1 -527 1 -1138 l1 -1110 -960 -3 -961 -2 1 1140 0 1140 959 0
959 0 0 -27z m1920 -3 c1 -16 1 -176 1 -355 0 -179 0 -336 -1 -350 l0 -25
-572 2 -572 3 -7 28 c-4 15 -4 27 1 27 5 0 5 12 1 27 -4 16 -4 44 -1 65 4 20
4 42 -1 49 -4 7 -4 20 1 29 5 9 5 22 0 30 -5 8 -5 21 0 30 5 9 5 22 0 30 -5 8
-5 21 0 30 5 9 5 22 0 30 -5 8 -5 21 0 30 5 9 5 22 0 30 -5 8 -5 21 0 30 5 9
5 22 0 29 -4 8 -4 27 0 42 5 16 5 29 0 29 -5 0 -5 13 0 30 5 17 6 30 2 30 -4
0 -7 16 -7 35 0 19 3 35 7 35 4 0 3 14 -2 30 l-9 30 580 0 579 0 0 -30z m0
-1560 c1 -38 1 -180 1 -315 0 -135 0 -274 -1 -310 l0 -65 -572 2 -573 3 1 23
c0 12 -3 22 -7 22 -4 0 -4 13 1 30 5 17 5 32 0 35 -5 3 -6 15 0 29 4 12 4 29
0 36 -5 8 -5 21 0 30 5 9 5 22 0 30 -4 7 -4 24 0 36 6 14 5 26 0 29 -5 3 -5
18 0 35 5 17 5 30 0 30 -5 0 -5 13 0 30 5 17 5 30 0 30 -5 0 -5 13 0 30 5 17
6 30 2 30 -4 0 -7 16 -7 35 0 19 3 35 7 35 4 0 3 14 -2 30 -5 17 -5 30 0 30 5
0 5 13 0 29 -4 15 -4 34 0 42 5 7 5 20 1 28 -21 41 -23 41 575 41 l574 0 0
-70z m0 -1477 c1 -41 1 -695 1 -715 -1 -17 -99 -18 -1920 -18 l-1919 0 0 380
-1 380 1920 0 1919 0 0 -27z"/>
</g>
</svg>
