<svg width="24" height="19" viewBox="0 0 24 19" fill="none" xmlns="http://www.w3.org/2000/svg">
<path d="M21.6 15.4375C21.6 16.093 21.0624 16.625 20.4 16.625C19.7376 16.625 19.2 16.093 19.2 15.4375V1.1875C19.2 0.530813 18.6636 0 18 0H1.2C0.5364 0 0 0.530813 0 1.1875V16.625C0 17.936 1.0752 19 2.4 19H15.6H18.2064H20.4C22.3848 19 24 17.4016 24 15.4375V3.5625H21.6V15.4375ZM12 3.5625H15.6V5.9375H12V3.5625ZM12 8.3125H15.6V10.6875H12V8.3125ZM3.6 3.5625H9.6V10.6875H3.6V3.5625ZM3.6 15.4375V13.0625H15.6V15.4375H3.6Z" fill="#484848  "/>
</svg>
